<svg width="1274" height="369" viewBox="0 0 1274 369" version="1.1" xmlns="http://www.w3.org/2000/svg" xmlns:xlink="http://www.w3.org/1999/xlink">
<title>Page 1</title>
<desc>Created using Figma</desc>
<g id="Canvas" transform="translate(1396 -3617)">
<g id="Rakonto Core">
<use xlink:href="#path0_fill" transform="translate(-998 3553)"/>
</g>
<g id="Rakonto Core Logo">
<use xlink:href="#path1_fill" transform="translate(-1396 3620)" fill="url(#paint1_linear)"/>
</g>
</g>
<defs>
<linearGradient id="paint1_linear" x1="0" y1="0" x2="1" y2="0" gradientUnits="userSpaceOnUse" gradientTransform="matrix(2.2411e-14 366 -366 2.2411e-14 366 -2.2411e-14)">
<stop offset="0" stop-color="#36D1DC"/>
<stop offset="1" stop-color="#5B86E5"/>
</linearGradient>
<path id="path0_fill" d="M 50.6543 140.636L 60.9082 140.636C 70.957 140.636 78.374 138.961 83.1592 135.611C 87.9443 132.262 90.3369 126.998 90.3369 119.82C 90.3369 112.711 87.876 107.652 82.9541 104.645C 78.1006 101.637 70.5469 100.133 60.293 100.133L 50.6543 100.133L 50.6543 140.636ZM 50.6543 166.476L 50.6543 224L 18.8672 224L 18.8672 74.0879L 62.5488 74.0879C 82.9199 74.0879 97.9932 77.8135 107.769 85.2646C 117.544 92.6475 122.432 103.893 122.432 119C 122.432 127.818 120.005 135.68 115.151 142.584C 110.298 149.42 103.428 154.786 94.541 158.683C 117.1 192.384 131.797 214.156 138.633 224L 103.359 224L 67.5732 166.476L 50.6543 166.476ZM 227.842 224L 221.792 208.414L 220.972 208.414C 215.708 215.045 210.273 219.659 204.668 222.257C 199.131 224.786 191.885 226.051 182.93 226.051C 171.924 226.051 163.242 222.906 156.885 216.617C 150.596 210.328 147.451 201.373 147.451 189.752C 147.451 177.584 151.689 168.629 160.166 162.887C 168.711 157.076 181.562 153.863 198.721 153.248L 218.613 152.633L 218.613 147.608C 218.613 135.987 212.666 130.177 200.771 130.177C 191.611 130.177 180.845 132.945 168.472 138.482L 158.115 117.359C 171.309 110.455 185.938 107.003 202.002 107.003C 217.383 107.003 229.175 110.353 237.378 117.052C 245.581 123.751 249.683 133.937 249.683 147.608L 249.683 224L 227.842 224ZM 218.613 170.885L 206.514 171.295C 197.422 171.568 190.654 173.209 186.211 176.217C 181.768 179.225 179.546 183.805 179.546 189.957C 179.546 198.775 184.604 203.185 194.722 203.185C 201.968 203.185 207.744 201.1 212.051 196.93C 216.426 192.76 218.613 187.223 218.613 180.318L 218.613 170.885ZM 312.026 161.656L 325.664 144.225L 357.759 109.361L 393.032 109.361L 347.505 159.093L 395.801 224L 359.707 224L 326.689 177.55L 313.257 188.316L 313.257 224L 281.982 224L 281.982 64.4492L 313.257 64.4492L 313.257 135.611L 311.616 161.656L 312.026 161.656ZM 437.124 166.476C 437.124 177.823 438.97 186.402 442.661 192.213C 446.421 198.023 452.505 200.929 460.913 200.929C 469.253 200.929 475.234 198.058 478.857 192.315C 482.549 186.505 484.395 177.892 484.395 166.476C 484.395 155.128 482.549 146.617 478.857 140.943C 475.166 135.27 469.116 132.433 460.708 132.433C 452.368 132.433 446.353 135.27 442.661 140.943C 438.97 146.549 437.124 155.06 437.124 166.476ZM 516.387 166.476C 516.387 185.138 511.465 199.732 501.621 210.26C 491.777 220.787 478.071 226.051 460.503 226.051C 449.497 226.051 439.79 223.658 431.382 218.873C 422.974 214.02 416.514 207.081 412.002 198.058C 407.49 189.034 405.234 178.507 405.234 166.476C 405.234 147.745 410.122 133.185 419.897 122.794C 429.673 112.403 443.413 107.208 461.118 107.208C 472.124 107.208 481.831 109.601 490.239 114.386C 498.647 119.171 505.107 126.041 509.619 134.996C 514.131 143.951 516.387 154.444 516.387 166.476ZM 648.047 224L 616.772 224L 616.772 157.042C 616.772 148.771 615.303 142.584 612.363 138.482C 609.424 134.312 604.741 132.228 598.315 132.228C 589.565 132.228 583.242 135.167 579.346 141.046C 575.449 146.856 573.501 156.529 573.501 170.064L 573.501 224L 542.227 224L 542.227 109.361L 566.118 109.361L 570.322 124.024L 572.065 124.024C 575.552 118.487 580.337 114.317 586.421 111.515C 592.573 108.644 599.546 107.208 607.339 107.208C 620.669 107.208 630.786 110.831 637.69 118.077C 644.595 125.255 648.047 135.646 648.047 149.249L 648.047 224ZM 728.54 201.134C 734.009 201.134 740.571 199.937 748.228 197.545L 748.228 220.821C 740.435 224.308 730.864 226.051 719.517 226.051C 707.007 226.051 697.881 222.906 692.139 216.617C 686.465 210.26 683.628 200.758 683.628 188.111L 683.628 132.843L 668.657 132.843L 668.657 119.615L 685.884 109.156L 694.907 84.957L 714.902 84.957L 714.902 109.361L 746.997 109.361L 746.997 132.843L 714.902 132.843L 714.902 188.111C 714.902 192.555 716.133 195.836 718.594 197.955C 721.123 200.074 724.438 201.134 728.54 201.134ZM 796.421 166.476C 796.421 177.823 798.267 186.402 801.958 192.213C 805.718 198.023 811.802 200.929 820.21 200.929C 828.55 200.929 834.531 198.058 838.154 192.315C 841.846 186.505 843.691 177.892 843.691 166.476C 843.691 155.128 841.846 146.617 838.154 140.943C 834.463 135.27 828.413 132.433 820.005 132.433C 811.665 132.433 805.649 135.27 801.958 140.943C 798.267 146.549 796.421 155.06 796.421 166.476ZM 875.684 166.476C 875.684 185.138 870.762 199.732 860.918 210.26C 851.074 220.787 837.368 226.051 819.8 226.051C 808.794 226.051 799.087 223.658 790.679 218.873C 782.271 214.02 775.811 207.081 771.299 198.058C 766.787 189.034 764.531 178.507 764.531 166.476C 764.531 147.745 769.419 133.185 779.194 122.794C 788.97 112.403 802.71 107.208 820.415 107.208C 831.421 107.208 841.128 109.601 849.536 114.386C 857.944 119.171 864.404 126.041 868.916 134.996C 873.428 143.951 875.684 154.444 875.684 166.476ZM 85.21 282.368C 66.4111 282.368 51.6113 288.384 40.8105 300.415C 30.0098 312.446 24.6094 328.921 24.6094 349.839C 24.6094 371.235 29.7021 387.847 39.8877 399.673C 50.0732 411.499 64.6338 417.412 83.5693 417.412C 96.1475 417.412 107.7 415.806 118.228 412.593L 118.228 421.821C 108.315 425.308 95.9424 427.051 81.1084 427.051C 60.0537 427.051 43.4766 420.249 31.377 406.646C 19.2773 393.042 13.2275 374.038 13.2275 349.634C 13.2275 334.39 16.0986 320.957 21.8408 309.336C 27.6514 297.715 35.957 288.76 46.7578 282.471C 57.627 276.113 70.2393 272.935 84.5947 272.935C 99.2236 272.935 112.314 275.669 123.867 281.138L 119.663 290.571C 108.726 285.103 97.2412 282.368 85.21 282.368ZM 241.274 369.116C 241.274 387.3 236.865 401.519 228.047 411.772C 219.229 421.958 207.061 427.051 191.543 427.051C 181.768 427.051 173.154 424.692 165.703 419.976C 158.252 415.259 152.544 408.491 148.579 399.673C 144.614 390.854 142.632 380.669 142.632 369.116C 142.632 350.933 147.041 336.782 155.859 326.665C 164.678 316.479 176.777 311.387 192.158 311.387C 207.471 311.387 219.468 316.548 228.149 326.87C 236.899 337.124 241.274 351.206 241.274 369.116ZM 153.296 369.116C 153.296 384.429 156.646 396.392 163.345 405.005C 170.112 413.55 179.648 417.822 191.953 417.822C 204.258 417.822 213.76 413.55 220.459 405.005C 227.227 396.392 230.61 384.429 230.61 369.116C 230.61 353.735 227.192 341.807 220.356 333.33C 213.589 324.854 204.053 320.615 191.748 320.615C 179.443 320.615 169.941 324.854 163.242 333.33C 156.611 341.738 153.296 353.667 153.296 369.116ZM 316.025 311.387C 320.742 311.387 325.801 311.865 331.201 312.822L 329.253 322.563C 324.604 321.401 319.785 320.82 314.795 320.82C 305.293 320.82 297.5 324.854 291.416 332.92C 285.332 340.986 282.29 351.172 282.29 363.477L 282.29 425L 272.139 425L 272.139 313.54L 280.752 313.54L 281.777 333.638L 282.495 333.638C 287.075 325.435 291.963 319.692 297.158 316.411C 302.354 313.062 308.643 311.387 316.025 311.387ZM 398.979 427.051C 382.778 427.051 370.132 422.061 361.04 412.08C 352.017 402.1 347.505 388.12 347.505 370.142C 347.505 352.368 351.88 338.149 360.63 327.485C 369.38 316.753 381.172 311.387 396.006 311.387C 409.131 311.387 419.487 315.967 427.075 325.127C 434.663 334.287 438.457 346.729 438.457 362.451L 438.457 370.654L 358.169 370.654C 358.306 385.967 361.86 397.656 368.833 405.723C 375.874 413.789 385.923 417.822 398.979 417.822C 405.337 417.822 410.908 417.378 415.693 416.489C 420.547 415.601 426.665 413.687 434.048 410.747L 434.048 419.976C 427.759 422.71 421.948 424.556 416.616 425.513C 411.284 426.538 405.405 427.051 398.979 427.051ZM 396.006 320.41C 385.273 320.41 376.66 323.965 370.166 331.074C 363.672 338.115 359.878 348.301 358.784 361.631L 427.69 361.631C 427.69 348.711 424.888 338.628 419.282 331.382C 413.677 324.067 405.918 320.41 396.006 320.41Z"/>
<path id="path1_fill" d="M 0 0L 366 0L 366 366L 0 366L 0 0Z"/>
</defs>
</svg>
