<svg width="1172" height="500" viewBox="0 0 1172 500" version="1.1" xmlns="http://www.w3.org/2000/svg" xmlns:xlink="http://www.w3.org/1999/xlink">
<title>Page 1</title>
<desc>Created using Figma</desc>
<g id="Canvas" transform="translate(1415 -2042)">
<g id="Rakonto Engine">
<use xlink:href="#path0_fill" transform="translate(-1119 2042)"/>
</g>
<g id="Rakonto Engine Logo">
<g id="Leg">
<use xlink:href="#path1_fill" transform="translate(-1369 2339)" fill="url(#paint1_linear)"/>
</g>
<g id="Body">
<use xlink:href="#path2_fill" transform="translate(-1415 2042)" fill="url(#paint2_linear)"/>
</g>
</g>
</g>
<defs>
<linearGradient id="paint1_linear" x1="0" y1="0" x2="1" y2="0" gradientUnits="userSpaceOnUse" gradientTransform="matrix(102 202.5 -204 102.756 204 -51.3778)">
<stop offset="0" stop-color="#EB3349"/>
<stop offset="1" stop-color="#F45C43"/>
</linearGradient>
<linearGradient id="paint2_linear" x1="0" y1="0" x2="1" y2="0" gradientUnits="userSpaceOnUse" gradientTransform="matrix(1.53081e-14 500 -250 3.06162e-14 250 -3.06162e-14)">
<stop offset="0" stop-color="#FC00FF"/>
<stop offset="1" stop-color="#00DBDE"/>
</linearGradient>
<path id="path0_fill" d="M 50.6543 140.636L 60.9082 140.636C 70.957 140.636 78.374 138.961 83.1592 135.611C 87.9443 132.262 90.3369 126.998 90.3369 119.82C 90.3369 112.711 87.876 107.652 82.9541 104.645C 78.1006 101.637 70.5469 100.133 60.293 100.133L 50.6543 100.133L 50.6543 140.636ZM 50.6543 166.476L 50.6543 224L 18.8672 224L 18.8672 74.0879L 62.5488 74.0879C 82.9199 74.0879 97.9932 77.8135 107.769 85.2646C 117.544 92.6475 122.432 103.893 122.432 119C 122.432 127.818 120.005 135.68 115.151 142.584C 110.298 149.42 103.428 154.786 94.541 158.683C 117.1 192.384 131.797 214.156 138.633 224L 103.359 224L 67.5732 166.476L 50.6543 166.476ZM 227.842 224L 221.792 208.414L 220.972 208.414C 215.708 215.045 210.273 219.659 204.668 222.257C 199.131 224.786 191.885 226.051 182.93 226.051C 171.924 226.051 163.242 222.906 156.885 216.617C 150.596 210.328 147.451 201.373 147.451 189.752C 147.451 177.584 151.689 168.629 160.166 162.887C 168.711 157.076 181.562 153.863 198.721 153.248L 218.613 152.633L 218.613 147.608C 218.613 135.987 212.666 130.177 200.771 130.177C 191.611 130.177 180.845 132.945 168.472 138.482L 158.115 117.359C 171.309 110.455 185.938 107.003 202.002 107.003C 217.383 107.003 229.175 110.353 237.378 117.052C 245.581 123.751 249.683 133.937 249.683 147.608L 249.683 224L 227.842 224ZM 218.613 170.885L 206.514 171.295C 197.422 171.568 190.654 173.209 186.211 176.217C 181.768 179.225 179.546 183.805 179.546 189.957C 179.546 198.775 184.604 203.185 194.722 203.185C 201.968 203.185 207.744 201.1 212.051 196.93C 216.426 192.76 218.613 187.223 218.613 180.318L 218.613 170.885ZM 312.026 161.656L 325.664 144.225L 357.759 109.361L 393.032 109.361L 347.505 159.093L 395.801 224L 359.707 224L 326.689 177.55L 313.257 188.316L 313.257 224L 281.982 224L 281.982 64.4492L 313.257 64.4492L 313.257 135.611L 311.616 161.656L 312.026 161.656ZM 437.124 166.476C 437.124 177.823 438.97 186.402 442.661 192.213C 446.421 198.023 452.505 200.929 460.913 200.929C 469.253 200.929 475.234 198.058 478.857 192.315C 482.549 186.505 484.395 177.892 484.395 166.476C 484.395 155.128 482.549 146.617 478.857 140.943C 475.166 135.27 469.116 132.433 460.708 132.433C 452.368 132.433 446.353 135.27 442.661 140.943C 438.97 146.549 437.124 155.06 437.124 166.476ZM 516.387 166.476C 516.387 185.138 511.465 199.732 501.621 210.26C 491.777 220.787 478.071 226.051 460.503 226.051C 449.497 226.051 439.79 223.658 431.382 218.873C 422.974 214.02 416.514 207.081 412.002 198.058C 407.49 189.034 405.234 178.507 405.234 166.476C 405.234 147.745 410.122 133.185 419.897 122.794C 429.673 112.403 443.413 107.208 461.118 107.208C 472.124 107.208 481.831 109.601 490.239 114.386C 498.647 119.171 505.107 126.041 509.619 134.996C 514.131 143.951 516.387 154.444 516.387 166.476ZM 648.047 224L 616.772 224L 616.772 157.042C 616.772 148.771 615.303 142.584 612.363 138.482C 609.424 134.312 604.741 132.228 598.315 132.228C 589.565 132.228 583.242 135.167 579.346 141.046C 575.449 146.856 573.501 156.529 573.501 170.064L 573.501 224L 542.227 224L 542.227 109.361L 566.118 109.361L 570.322 124.024L 572.065 124.024C 575.552 118.487 580.337 114.317 586.421 111.515C 592.573 108.644 599.546 107.208 607.339 107.208C 620.669 107.208 630.786 110.831 637.69 118.077C 644.595 125.255 648.047 135.646 648.047 149.249L 648.047 224ZM 728.54 201.134C 734.009 201.134 740.571 199.938 748.228 197.545L 748.228 220.821C 740.435 224.308 730.864 226.051 719.517 226.051C 707.007 226.051 697.881 222.906 692.139 216.617C 686.465 210.26 683.628 200.758 683.628 188.111L 683.628 132.843L 668.657 132.843L 668.657 119.615L 685.884 109.156L 694.907 84.957L 714.902 84.957L 714.902 109.361L 746.997 109.361L 746.997 132.843L 714.902 132.843L 714.902 188.111C 714.902 192.555 716.133 195.836 718.594 197.955C 721.123 200.074 724.438 201.134 728.54 201.134ZM 796.421 166.476C 796.421 177.823 798.267 186.402 801.958 192.213C 805.718 198.023 811.802 200.929 820.21 200.929C 828.55 200.929 834.531 198.058 838.154 192.315C 841.846 186.505 843.691 177.892 843.691 166.476C 843.691 155.128 841.846 146.617 838.154 140.943C 834.463 135.27 828.413 132.433 820.005 132.433C 811.665 132.433 805.649 135.27 801.958 140.943C 798.267 146.549 796.421 155.06 796.421 166.476ZM 875.684 166.476C 875.684 185.138 870.762 199.732 860.918 210.26C 851.074 220.787 837.368 226.051 819.8 226.051C 808.794 226.051 799.087 223.658 790.679 218.873C 782.271 214.02 775.811 207.081 771.299 198.058C 766.787 189.034 764.531 178.507 764.531 166.476C 764.531 147.745 769.419 133.185 779.194 122.794C 788.97 112.403 802.71 107.208 820.415 107.208C 831.421 107.208 841.128 109.601 849.536 114.386C 857.944 119.171 864.404 126.041 868.916 134.996C 873.428 143.951 875.684 154.444 875.684 166.476ZM 103.154 425L 21.2256 425L 21.2256 275.088L 103.154 275.088L 103.154 284.727L 31.6846 284.727L 31.6846 341.431L 99.1553 341.431L 99.1553 351.069L 31.6846 351.069L 31.6846 415.361L 103.154 415.361L 103.154 425ZM 212.256 425L 212.256 352.71C 212.256 341.499 209.897 333.364 205.181 328.306C 200.464 323.179 193.149 320.615 183.237 320.615C 169.907 320.615 160.132 323.999 153.911 330.767C 147.759 337.466 144.683 348.369 144.683 363.477L 144.683 425L 134.531 425L 134.531 313.54L 143.145 313.54L 145.093 328.818L 145.708 328.818C 152.954 317.197 165.84 311.387 184.365 311.387C 209.658 311.387 222.305 324.956 222.305 352.095L 222.305 425L 212.256 425ZM 345.352 313.54L 345.352 320.615L 322.28 322.051C 328.433 329.707 331.509 338.115 331.509 347.275C 331.509 358.008 327.92 366.724 320.742 373.423C 313.633 380.054 304.062 383.369 292.031 383.369C 286.973 383.369 283.418 383.164 281.367 382.754C 277.334 384.873 274.258 387.368 272.139 390.239C 270.02 393.11 268.96 396.152 268.96 399.365C 268.96 402.92 270.293 405.518 272.959 407.158C 275.693 408.799 280.239 409.619 286.597 409.619L 306.079 409.619C 318.179 409.619 327.441 412.08 333.867 417.002C 340.293 421.855 343.506 429.067 343.506 438.638C 343.506 450.396 338.721 459.453 329.15 465.811C 319.648 472.236 306.079 475.449 288.442 475.449C 274.429 475.449 263.56 472.749 255.835 467.349C 248.179 461.948 244.351 454.429 244.351 444.79C 244.351 437.134 246.709 430.776 251.426 425.718C 256.211 420.659 262.671 417.207 270.806 415.361C 267.456 413.926 264.756 411.909 262.705 409.312C 260.723 406.646 259.731 403.604 259.731 400.186C 259.731 392.734 264.482 386.172 273.984 380.498C 267.49 377.832 262.432 373.662 258.809 367.988C 255.186 362.246 253.374 355.684 253.374 348.301C 253.374 337.158 256.895 328.237 263.936 321.538C 271.045 314.771 280.615 311.387 292.646 311.387C 299.961 311.387 305.635 312.104 309.668 313.54L 345.352 313.54ZM 255.117 443.867C 255.117 459.18 266.499 466.836 289.263 466.836C 318.521 466.836 333.149 457.505 333.149 438.843C 333.149 432.144 330.859 427.29 326.279 424.282C 321.699 421.274 314.282 419.771 304.028 419.771L 285.776 419.771C 265.337 419.771 255.117 427.803 255.117 443.867ZM 263.628 348.301C 263.628 356.914 266.226 363.613 271.421 368.398C 276.685 373.115 283.691 375.474 292.441 375.474C 301.738 375.474 308.848 373.115 313.77 368.398C 318.76 363.682 321.255 356.846 321.255 347.891C 321.255 338.389 318.691 331.279 313.564 326.562C 308.506 321.777 301.396 319.385 292.236 319.385C 283.35 319.385 276.343 321.948 271.216 327.075C 266.157 332.134 263.628 339.209 263.628 348.301ZM 378.472 425L 368.32 425L 368.32 313.54L 378.472 313.54L 378.472 425ZM 366.885 282.573C 366.885 276.011 369.038 272.729 373.345 272.729C 375.464 272.729 377.104 273.584 378.267 275.293C 379.497 277.002 380.112 279.429 380.112 282.573C 380.112 285.649 379.497 288.076 378.267 289.854C 377.104 291.631 375.464 292.52 373.345 292.52C 369.038 292.52 366.885 289.204 366.885 282.573ZM 493.623 425L 493.623 352.71C 493.623 341.499 491.265 333.364 486.548 328.306C 481.831 323.179 474.517 320.615 464.604 320.615C 451.274 320.615 441.499 323.999 435.278 330.767C 429.126 337.466 426.05 348.369 426.05 363.477L 426.05 425L 415.898 425L 415.898 313.54L 424.512 313.54L 426.46 328.818L 427.075 328.818C 434.321 317.197 447.207 311.387 465.732 311.387C 491.025 311.387 503.672 324.956 503.672 352.095L 503.672 425L 493.623 425ZM 584.78 427.051C 568.579 427.051 555.933 422.061 546.841 412.08C 537.817 402.1 533.306 388.12 533.306 370.142C 533.306 352.368 537.681 338.149 546.431 327.485C 555.181 316.753 566.973 311.387 581.807 311.387C 594.932 311.387 605.288 315.967 612.876 325.127C 620.464 334.287 624.258 346.729 624.258 362.451L 624.258 370.654L 543.97 370.654C 544.106 385.967 547.661 397.656 554.634 405.723C 561.675 413.789 571.724 417.822 584.78 417.822C 591.138 417.822 596.709 417.378 601.494 416.489C 606.348 415.601 612.466 413.687 619.849 410.747L 619.849 419.976C 613.56 422.71 607.749 424.556 602.417 425.513C 597.085 426.538 591.206 427.051 584.78 427.051ZM 581.807 320.41C 571.074 320.41 562.461 323.965 555.967 331.074C 549.473 338.115 545.679 348.301 544.585 361.631L 613.491 361.631C 613.491 348.711 610.688 338.628 605.083 331.382C 599.478 324.067 591.719 320.41 581.807 320.41Z"/>
<path id="path1_fill" d="M 107 0L 204 202.5L 0 141.5L 107 0Z"/>
<path id="path2_fill" d="M 0 0L 0 500L 250 169L 0 0Z"/>
</defs>
</svg>
